<?xml version="1.0" encoding="utf-8"?>
<!-- Generator: Adobe Illustrator 26.0.2, SVG Export Plug-In . SVG Version: 6.00 Build 0)  -->
<svg version="1.1" id="Layer_1" xmlns="http://www.w3.org/2000/svg" xmlns:xlink="http://www.w3.org/1999/xlink" x="0px" y="0px"
	 viewBox="0 0 45 45" style="enable-background:new 0 0 45 45;" xml:space="preserve">
<style type="text/css">
	.st0{fill:#E94589;}
	.st2{fill:#212322;}
</style>
<g>
	<path class="st0" d="M20.37,8.64C10.19,8.66,1.95,16.92,1.97,27.1l36.87-0.06C38.82,16.87,30.55,8.63,20.37,8.64z"/>
	<path class="st2" d="M31.01,2.37c-0.1-1.15-1.06-2.06-2.24-2.06c-1.18,0-2.14,0.91-2.23,2.06L23.8,42.42
		c-0.02,0.31-0.26,0.57-0.57,0.57c-0.32,0-0.55-0.26-0.57-0.57L19.79,2.39c-0.1-1.15-1.06-2.06-2.24-2.06
		c-1.18,0-2.14,0.91-2.23,2.06l-2.74,40.04c-0.02,0.31-0.26,0.57-0.57,0.57s-0.55-0.26-0.57-0.57L8.51,1.54
		C8.48,1.1,8.11,0.77,7.68,0.77c-0.02,0-0.04,0-0.06,0C7.16,0.8,6.81,1.2,6.85,1.66l2.93,40.96c0.1,1.15,1.06,2.06,2.24,2.06
		c1.18,0,2.14-0.91,2.23-2.06l2.74-40.04c0.02-0.31,0.26-0.57,0.57-0.57c0.32,0,0.55,0.26,0.57,0.57l2.86,40.03
		c0.1,1.15,1.06,2.06,2.24,2.06c1.18,0,2.14-0.91,2.23-2.06L28.2,2.56c0.02-0.31,0.26-0.57,0.57-0.57c0.32,0,0.55,0.26,0.57,0.57
		l2.92,40.9c0.03,0.44,0.4,0.78,0.83,0.78c0.02,0,0.04,0,0.06,0c0.46-0.03,0.81-0.43,0.77-0.89L31.01,2.37z"/>
</g>
</svg>
